<?xml version="1.0" encoding="UTF-8" standalone="no"?>
<svg
   version="1.1"
   x="0px"
   y="0px"
   viewBox="0 0 871.29999 763.14447"
   xml:space="preserve"
   id="svg10"
   sodipodi:docname="noun-package-3235397.svg"
   width="871.29999"
   height="763.14447"
   fill="#847852"
   inkscape:version="1.2.2 (b0a8486541, 2022-12-01)"
   xmlns:inkscape="http://www.inkscape.org/namespaces/inkscape"
   xmlns:sodipodi="http://sodipodi.sourceforge.net/DTD/sodipodi-0.dtd"
   xmlns="http://www.w3.org/2000/svg"
   xmlns:svg="http://www.w3.org/2000/svg"><defs
     id="defs14" /><sodipodi:namedview
     id="namedview12"
     pagecolor="#ffffff"
     bordercolor="#000000"
     borderopacity="0.25"
     inkscape:showpageshadow="2"
     inkscape:pageopacity="0.0"
     inkscape:pagecheckerboard="0"
     inkscape:deskcolor="#d1d1d1"
     showgrid="false"
     inkscape:zoom="0.68046875"
     inkscape:cx="480.55109"
     inkscape:cy="362.98507"
     inkscape:window-width="1876"
     inkscape:window-height="969"
     inkscape:window-x="0"
     inkscape:window-y="0"
     inkscape:window-maximized="1"
     inkscape:current-layer="svg10" /><path
     d="m 871.3,716.84444 v -509.6 h -349 v 183.6 c 0,2.9 -3.3,6.1 -6.3,4.8 -11.1,-4.6 -22.3,-9.3 -33.4,-13.9 -13.9,-5.8 -27.8,-11.5 -41.6,-17.3 -1.6,-0.7 -3.4,-1.2 -4.9,-2 -0.9,0.4 -2.1,0.7 -2.5,0.8 -2.2,0.9 -4.4,1.8 -6.6,2.8 -23.8,9.9 -47.5,19.8 -71.3,29.7 -3.1,1.3 -6.3,-1.9 -6.3,-4.8 0,-0.4 0,-0.7 0,-1.1 -0.7,-22.4 0,-44.9 0,-67.3 v -98.3 c 0,-5.5 -0.3,-11.3 -0.4,-17 H 0 c 0,5.6 0.1,11.1 0.1,16.7 v 503.8 c 0,7.3 0.6,14.4 4.7,20.9 6.2,10 17.1,14.5 28.5,14.5 h 806.3 c 0.3,0 0.6,0 1,0 0.5,0 1.1,0 1.6,-0.1 v 0 c 17.3,-1.5 29,-15.3 29.1,-32.6 0,-4.6 0,-9.1 0,-13.6 z"
     id="path2" /><path
     d="M 858.2,167.24444 H 516.6 c -9,-37 -17.9,-73.899996 -26.9,-110.799996 -1.5,-6.3 -3.1,-12.6 -4.6,-18.9 -0.5,-2.1 -2.7,-3.7 -4.8,-3.7 h -88.2 c -2.1,0 -4.3,1.5 -4.8,3.7 -5.3,21.2 -10.6,42.4 -15.8,63.599996 -5.5,22.1 -11,44.1 -16.5,66.2 H 26.5 c -4.3,0 -8.6,0 -13,0 4.4,-4.6 8.8,-9.1 13.1,-13.7 22.6,-23.5 45.1,-47.1 67.7,-70.599996 20.8,-21.7 41.5,-43.3 62.3,-65 4.3,-4.4 8.3,-9.1999996 12.8,-13.3999996 4.9,-4.49999996 9.6,-4.59999996 15.4,-4.59999996 h 490.5 c 4.6,0 9.3,-0.1 13.9,0 5.8,0.1 10.6,2.49999996 14.5,6.59999996 16,16.7999996 32.1,33.4999996 48.2,50.2999996 23.9,24.9 47.8,49.799996 71.6,74.699996 11.5,11.7 23.3,23.5 34.7,35.6 z"
     id="path4" /></svg>
