<?xml version="1.0" encoding="utf-8"?>
<!-- Svg Vector Icons : http://www.onlinewebfonts.com/icon -->
<!DOCTYPE svg PUBLIC "-//W3C//DTD SVG 1.1//EN" "http://www.w3.org/Graphics/SVG/1.1/DTD/svg11.dtd">
<svg version="1.1" xmlns="http://www.w3.org/2000/svg" xmlns:xlink="http://www.w3.org/1999/xlink" x="0px" y="0px" viewBox="0 0 1000 1000" enable-background="new 0 0 1000 1000" xml:space="preserve">
<g><g><path d="M730.1,7L495.5,241.6c-36,1-71.8,15.1-99.3,42.6L52.8,627.5c-57,57.1-57,149.5,0,206.5l116.1,116.1c57,57.1,149.4,57.1,206.4,0l343.5-343.5c30.6-30.5,44.6-71.3,42.4-111.3L990,266.7L730.1,7z M749.4,445.2c-7.1-16.3-17.1-31.7-30.5-45L602.8,284.1c-15.8-15.7-34.3-26.9-53.8-34L730.2,68.8L928,266.7L749.4,445.2z M783.9,177l-47.3,47.3l-62.8-62.8l47.3-47.3L783.9,177z M877.7,270.8l-47.3,47.3l-62.8-62.8l47.3-47.3L877.7,270.8z" fill="#847852"/></g><g></g><g></g><g></g><g></g><g></g><g></g><g></g><g></g><g></g><g></g><g></g><g></g><g></g><g></g><g></g></g>
</svg>
